<svg xmlns="http://www.w3.org/2000/svg"  viewBox="0 0 333333 333333" shape-rendering="geometricPrecision" text-rendering="geometricPrecision" image-rendering="optimizeQuality" fill-rule="evenodd" clip-rule="evenodd"><path d="M302077 0H31255C14069 0 1 14068 1 31256v270822c0 17186 14068 31254 31254 31254h270822c17186 0 31254-14068 31254-31254l2-270824C333333 14068 319265 0 302079 0h-2zM187907 95783h35461V53254h-35461c-27307 0-49588 22274-49588 49618v21255h-28355v42539h28350v113412h42533V166666h35427l7094-42539h-42523v-21255c0-3848 3247-7094 7060-7094v6h2z" fill="#3b5998"/></svg>