<svg xmlns="http://www.w3.org/2000/svg"  viewBox="0 0 333333 333333" shape-rendering="geometricPrecision" text-rendering="geometricPrecision" image-rendering="optimizeQuality" fill-rule="evenodd" clip-rule="evenodd"><path d="M302077 0H31255C14069 0 1 14068 1 31256v270822c0 17186 14068 31254 31254 31254h270822c17186 0 31254-14068 31254-31254l2-270824C333333 14068 319265 0 302079 0h-2zm-33549 103487c-7489 3350-15558 5575-23983 6568 8632-5170 15233-13361 18384-23115-8068 4772-17034 8271-26535 10143-7640-8117-18490-13163-30510-13163-23080 0-41766 18697-41766 41763 0 3256 361 6440 1068 9512-34728-1760-65516-18386-86126-43680-3697 6378-5654 13630-5654 21004v5c0 14483 7354 27292 18573 34762-6847-204-13287-2113-18941-5207v522c0 20254 14396 37154 33525 40974-3505 952-7204 1477-11015 1477-2700 0-5301-278-7887-748 5343 16587 20765 28679 39029 29032-14320 11219-32306 17899-51914 17899-3384 0-6681-207-9974-602 18535 11893 40492 18780 64080 18780 76848 0 118908-63685 118908-118903 0-1835-41-3613-117-5410 8162-5839 15238-13207 20840-21595l19-19-4 2z" fill="#1da1f2"/></svg>