<svg xmlns="http://www.w3.org/2000/svg"  viewBox="0 0 333333 333333" shape-rendering="geometricPrecision" text-rendering="geometricPrecision" image-rendering="optimizeQuality" fill-rule="evenodd" clip-rule="evenodd"><path d="M302077 0H31255C14069 0 1 14068 1 31256v270822c0 17186 14068 31254 31254 31254h270822c17186 0 31254-14068 31254-31254l2-270824C333333 14068 319265 0 302079 0h-2zm-38146 126961s-1939-13688-7905-19698c-7561-7905-16026-7956-19896-8414-27768-2023-69473-2023-69473-2023h-73s-41686 0-69469 2023c-3885 473-12339 506-19896 8414-5970 6010-7868 19698-7868 19698s-1976 16063-1976 32159v15052c0 16063 1975 32158 1975 32158s1939 13688 7868 19709c7557 7905 17489 7648 21923 8491 15897 1518 67531 1975 67531 1975s41742-74 69509-2059c3885-459 12336-506 19896-8414 5970-6010 7905-19713 7905-19713s1977-16063 1977-32158v-15051c-40-16063-2016-32158-2016-32158l-11 10-1-1zm-117844 65472v-55811l53644 27998-53644 27812z" fill="red"/></svg>